<mxfile host="Electron" agent="Mozilla/5.0 (Windows NT 10.0; Win64; x64) AppleWebKit/537.36 (KHTML, like Gecko) draw.io/28.1.2 Chrome/138.0.7204.243 Electron/37.4.0 Safari/537.36" version="28.1.2">
  <diagram name="Page-1" id="LxPYVKeEVnGJ0zAsbgE_">
    <mxGraphModel dx="1426" dy="841" grid="1" gridSize="10" guides="1" tooltips="1" connect="1" arrows="1" fold="1" page="1" pageScale="1" pageWidth="850" pageHeight="1100" math="0" shadow="0">
      <root>
        <mxCell id="0" />
        <mxCell id="1" parent="0" />
        <mxCell id="tqZufDbys28LNcPTvB-b-27" value="" style="group" vertex="1" connectable="0" parent="1">
          <mxGeometry x="165" y="30" width="520" height="300" as="geometry" />
        </mxCell>
        <mxCell id="tqZufDbys28LNcPTvB-b-24" style="edgeStyle=orthogonalEdgeStyle;rounded=0;orthogonalLoop=1;jettySize=auto;html=1;exitX=0.5;exitY=1;exitDx=0;exitDy=0;entryX=0.5;entryY=0;entryDx=0;entryDy=0;" edge="1" parent="tqZufDbys28LNcPTvB-b-27" source="tqZufDbys28LNcPTvB-b-21" target="tqZufDbys28LNcPTvB-b-23">
          <mxGeometry relative="1" as="geometry" />
        </mxCell>
        <mxCell id="tqZufDbys28LNcPTvB-b-21" value="Class diagram creator Service" style="rounded=0;whiteSpace=wrap;html=1;" vertex="1" parent="tqZufDbys28LNcPTvB-b-27">
          <mxGeometry x="3" y="130" width="515" height="60" as="geometry" />
        </mxCell>
        <mxCell id="tqZufDbys28LNcPTvB-b-22" style="edgeStyle=orthogonalEdgeStyle;rounded=0;orthogonalLoop=1;jettySize=auto;html=1;exitX=0.5;exitY=1;exitDx=0;exitDy=0;entryX=0.5;entryY=0;entryDx=0;entryDy=0;" edge="1" parent="tqZufDbys28LNcPTvB-b-27" source="tqZufDbys28LNcPTvB-b-10" target="tqZufDbys28LNcPTvB-b-21">
          <mxGeometry relative="1" as="geometry" />
        </mxCell>
        <mxCell id="tqZufDbys28LNcPTvB-b-26" style="edgeStyle=orthogonalEdgeStyle;rounded=0;orthogonalLoop=1;jettySize=auto;html=1;exitX=1;exitY=0.5;exitDx=0;exitDy=0;entryX=0;entryY=0.5;entryDx=0;entryDy=0;" edge="1" parent="tqZufDbys28LNcPTvB-b-27" source="tqZufDbys28LNcPTvB-b-23" target="tqZufDbys28LNcPTvB-b-25">
          <mxGeometry relative="1" as="geometry">
            <mxPoint x="395" y="270" as="targetPoint" />
          </mxGeometry>
        </mxCell>
        <mxCell id="tqZufDbys28LNcPTvB-b-23" value="OUTPUT" style="rounded=0;whiteSpace=wrap;html=1;fillColor=#0050ef;fontColor=#ffffff;strokeColor=#001DBC;" vertex="1" parent="tqZufDbys28LNcPTvB-b-27">
          <mxGeometry x="200" y="240" width="120" height="60" as="geometry" />
        </mxCell>
        <mxCell id="tqZufDbys28LNcPTvB-b-25" value="Class Diagram of the Solution/Project" style="rounded=0;whiteSpace=wrap;html=1;fillColor=#fa6800;fontColor=#000000;strokeColor=#C73500;" vertex="1" parent="tqZufDbys28LNcPTvB-b-27">
          <mxGeometry x="398" y="240" width="120" height="60" as="geometry" />
        </mxCell>
        <mxCell id="tqZufDbys28LNcPTvB-b-18" style="edgeStyle=orthogonalEdgeStyle;rounded=0;orthogonalLoop=1;jettySize=auto;html=1;exitX=1;exitY=0.5;exitDx=0;exitDy=0;entryX=0;entryY=0.5;entryDx=0;entryDy=0;" edge="1" parent="tqZufDbys28LNcPTvB-b-27" source="tqZufDbys28LNcPTvB-b-10" target="tqZufDbys28LNcPTvB-b-12">
          <mxGeometry relative="1" as="geometry" />
        </mxCell>
        <mxCell id="tqZufDbys28LNcPTvB-b-10" value="INPUT" style="rounded=0;whiteSpace=wrap;html=1;container=0;fillColor=#0050ef;fontColor=#ffffff;strokeColor=#001DBC;" vertex="1" parent="tqZufDbys28LNcPTvB-b-27">
          <mxGeometry y="16" width="120" height="60" as="geometry" />
        </mxCell>
        <mxCell id="tqZufDbys28LNcPTvB-b-16" style="edgeStyle=orthogonalEdgeStyle;rounded=0;orthogonalLoop=1;jettySize=auto;html=1;exitX=1;exitY=0.5;exitDx=0;exitDy=0;entryX=0;entryY=0.5;entryDx=0;entryDy=0;" edge="1" parent="tqZufDbys28LNcPTvB-b-27" source="tqZufDbys28LNcPTvB-b-12" target="tqZufDbys28LNcPTvB-b-13">
          <mxGeometry relative="1" as="geometry" />
        </mxCell>
        <mxCell id="tqZufDbys28LNcPTvB-b-17" style="edgeStyle=orthogonalEdgeStyle;rounded=0;orthogonalLoop=1;jettySize=auto;html=1;exitX=1;exitY=0.5;exitDx=0;exitDy=0;entryX=0;entryY=0.5;entryDx=0;entryDy=0;" edge="1" parent="tqZufDbys28LNcPTvB-b-27" source="tqZufDbys28LNcPTvB-b-12" target="tqZufDbys28LNcPTvB-b-14">
          <mxGeometry relative="1" as="geometry" />
        </mxCell>
        <mxCell id="tqZufDbys28LNcPTvB-b-12" value="(Visual Studio Solution)" style="rounded=0;whiteSpace=wrap;html=1;container=0;fillColor=#6a00ff;fontColor=#ffffff;strokeColor=#3700CC;" vertex="1" parent="tqZufDbys28LNcPTvB-b-27">
          <mxGeometry x="180" y="16" width="120" height="60" as="geometry" />
        </mxCell>
        <mxCell id="tqZufDbys28LNcPTvB-b-13" value="Console Application Project" style="rounded=0;whiteSpace=wrap;html=1;container=0;fillColor=#008a00;fontColor=#ffffff;strokeColor=#005700;" vertex="1" parent="tqZufDbys28LNcPTvB-b-27">
          <mxGeometry x="400" width="120" height="40" as="geometry" />
        </mxCell>
        <mxCell id="tqZufDbys28LNcPTvB-b-14" value="Web API Project" style="rounded=0;whiteSpace=wrap;html=1;container=0;fillColor=#008a00;fontColor=#ffffff;strokeColor=#005700;" vertex="1" parent="tqZufDbys28LNcPTvB-b-27">
          <mxGeometry x="400" y="50" width="120" height="40" as="geometry" />
        </mxCell>
        <mxCell id="tqZufDbys28LNcPTvB-b-28" value="&lt;b&gt;OBIETTIVO&lt;/b&gt;&lt;br&gt;&lt;div&gt;- Target: solution C#, output diagrammi di classi utili a capire il dominio e le dipendenze&lt;/div&gt;&lt;div&gt;- Done per MVP: diagrammi per progetto e per namespace, con raggruppamento per layer DDD (Domain/Applicaiton/Infrastructure/API), relazioni base, esportati in formato PlantUML/Mermaid&lt;/div&gt;&lt;div&gt;- Fuori scope iniziale: inferenze &quot;intelligenti&quot; (aggregate root automatiche), layout perfetto, reverse su librerie di terze parti.&lt;/div&gt;" style="rounded=0;whiteSpace=wrap;html=1;fillColor=#e51400;fontColor=#ffffff;strokeColor=#B20000;" vertex="1" parent="1">
          <mxGeometry x="165" y="360" width="520" height="100" as="geometry" />
        </mxCell>
        <mxCell id="tqZufDbys28LNcPTvB-b-29" value="Tre principali prospettive da tenere a mente:&#xa;1. Fisica: solution -&gt; progetti -&gt; riferimenti (dopendenze)&#xa;2. Logica: namespace/cartelle -&gt; moduli/pacchetti -&gt; (quasi sempre) bounded context e layer&#xa;3. Semantica: semantica DDD -&gt; inizialmente solo etichette/segnalatori" style="rounded=0;whiteSpace=wrap;fillColor=#fad9d5;strokeColor=#ae4132;fontColor=#000000;" vertex="1" parent="1">
          <mxGeometry x="163" y="500" width="525" height="60" as="geometry" />
        </mxCell>
        <mxCell id="tqZufDbys28LNcPTvB-b-30" value="PERCORSO MVP IN 6 STEP" style="rounded=0;whiteSpace=wrap;html=1;fillColor=#d80073;fontColor=#ffffff;strokeColor=#A50040;" vertex="1" parent="1">
          <mxGeometry x="0.5" y="600" width="849.5" height="40" as="geometry" />
        </mxCell>
        <mxCell id="tqZufDbys28LNcPTvB-b-31" value="&lt;h1 style=&quot;margin-top: 0px;&quot;&gt;1. Inventario e Spacchettamento&lt;/h1&gt;&lt;div&gt;- Leggere la solution e costruisci l&#39;elenco dei progetti: tipo (class library), target frameworks, path.&lt;/div&gt;&lt;div&gt;- Classificare: .Domain, .Application, .Infrastructure etc..&lt;/div&gt;&lt;div&gt;- Costruire la mappa del progetto -&amp;gt; riferimenti (solo first-party all&#39;inizio)&lt;/div&gt;" style="text;html=1;whiteSpace=wrap;overflow=hidden;rounded=0;" vertex="1" parent="1">
          <mxGeometry y="660" width="850" height="100" as="geometry" />
        </mxCell>
        <mxCell id="tqZufDbys28LNcPTvB-b-32" value="&lt;h1 style=&quot;margin-top: 0px;&quot;&gt;Heading&lt;/h1&gt;&lt;p&gt;Lorem ipsum dolor sit amet, consectetur adipisicing elit, sed do eiusmod tempor incididunt ut labore et dolore magna aliqua.&lt;/p&gt;" style="text;html=1;whiteSpace=wrap;overflow=hidden;rounded=0;" vertex="1" parent="1">
          <mxGeometry x="0.5" y="760" width="849.5" height="120" as="geometry" />
        </mxCell>
      </root>
    </mxGraphModel>
  </diagram>
</mxfile>
